<svg width="33" height="28" viewBox="0 0 33 28" fill="none" xmlns="http://www.w3.org/2000/svg">
<path d="M13.3754 25.4037C13.3754 25.8141 13.2447 26.2153 12.9998 26.5565C12.7549 26.8977 12.4068 27.1637 11.9995 27.3207C11.5922 27.4778 11.144 27.5189 10.7117 27.4388C10.2793 27.3587 9.88216 27.1611 9.57044 26.8709C9.25872 26.5807 9.04643 26.211 8.96043 25.8085C8.87443 25.406 8.91857 24.9888 9.08727 24.6096C9.25597 24.2305 9.54165 23.9064 9.9082 23.6784C10.2747 23.4504 10.7057 23.3287 11.1465 23.3287C11.7377 23.3287 12.3046 23.5473 12.7226 23.9365C13.1406 24.3256 13.3754 24.8534 13.3754 25.4037ZM25.6344 23.3287C25.1936 23.3287 24.7627 23.4504 24.3961 23.6784C24.0296 23.9064 23.7439 24.2305 23.5752 24.6096C23.4065 24.9888 23.3624 25.406 23.4484 25.8085C23.5344 26.211 23.7466 26.5807 24.0584 26.8709C24.3701 27.1611 24.7672 27.3587 25.1996 27.4388C25.632 27.5189 26.0801 27.4778 26.4874 27.3207C26.8947 27.1637 27.2428 26.8977 27.4877 26.5565C27.7326 26.2153 27.8634 25.8141 27.8634 25.4037C27.8634 24.8534 27.6285 24.3256 27.2105 23.9365C26.7925 23.5473 26.2256 23.3287 25.6344 23.3287ZM31.959 7.01416L28.2813 18.9972C28.0793 19.6468 27.6565 20.2179 27.0763 20.6247C26.496 21.0316 25.7897 21.2523 25.0633 21.2537H11.7177C10.9913 21.2523 10.2849 21.0316 9.70469 20.6247C9.12445 20.2179 8.70163 19.6468 8.49968 18.9972L4.82198 7.02713V7.00119L3.45677 2.57889H1.11641C0.820837 2.57889 0.537371 2.46958 0.32837 2.27501C0.119369 2.08045 0.00195313 1.81656 0.00195312 1.5414C0.00195313 1.26624 0.119369 1.00235 0.32837 0.80778C0.537371 0.613213 0.820837 0.503906 1.11641 0.503906H3.45677C3.94086 0.50554 4.41139 0.65294 4.79806 0.924085C5.18474 1.19523 5.46679 1.57557 5.6021 2.00827L6.73048 5.69136H30.8863C31.0589 5.69119 31.2292 5.72835 31.3838 5.79992C31.5384 5.87149 31.673 5.9755 31.777 6.10376C31.881 6.23202 31.9515 6.38102 31.9831 6.53901C32.0147 6.697 32.0065 6.85965 31.959 7.01416ZM29.4097 7.76634H7.37129L10.645 18.4266C10.7116 18.6435 10.8524 18.8342 11.046 18.9699C11.2395 19.1057 11.4753 19.179 11.7177 19.1787H25.0633C25.3056 19.179 25.5414 19.1057 25.735 18.9699C25.9285 18.8342 26.0693 18.6435 26.136 18.4266L29.4097 7.76634Z" fill="#5A5A5A"/>
</svg>
