<svg width="31" height="26" viewBox="0 0 31 26" fill="none" xmlns="http://www.w3.org/2000/svg">
<path d="M15.002 25.549C14.8124 25.5507 14.6256 25.5056 14.4603 25.4182C13.8631 25.1042 0.00195312 17.6876 0.00195312 8.28282C0.00195313 6.63561 0.552264 5.03015 1.57493 3.69387C2.59761 2.35758 4.04079 1.35821 5.70005 0.837317C7.35932 0.316423 9.15055 0.300415 10.82 0.791559C12.4895 1.2827 13.9525 2.2561 15.002 3.57387C16.0514 2.2561 17.5144 1.2827 19.1839 0.791559C20.8534 0.300415 22.6446 0.316423 24.3039 0.837317C25.9631 1.35821 27.4063 2.35758 28.429 3.69387C29.4516 5.03015 30.002 6.63561 30.002 8.28282C30.002 12.2854 27.5436 16.3927 22.6964 20.4999C20.4953 22.3635 18.0987 24.0114 15.5436 25.4182C15.3783 25.5056 15.1916 25.5507 15.002 25.549ZM8.33529 2.52744C6.71452 2.52744 5.16013 3.1338 4.01408 4.21315C2.86802 5.29249 2.22418 6.75639 2.22418 8.28282C2.22418 15.5032 12.502 21.8472 15.002 23.286C17.502 21.8472 27.7797 15.5032 27.7797 8.28282C27.781 6.95231 27.2928 5.66248 26.3981 4.63278C25.5035 3.60307 24.2576 2.89711 22.8726 2.63499C21.4875 2.37287 20.0488 2.57079 18.8012 3.19507C17.5537 3.81936 16.5743 4.83145 16.0297 6.05915C15.946 6.25107 15.8036 6.41523 15.6206 6.53076C15.4376 6.64629 15.2223 6.70797 15.002 6.70797C14.7816 6.70797 14.5663 6.64629 14.3833 6.53076C14.2003 6.41523 14.0579 6.25107 13.9742 6.05915C13.5117 5.01044 12.7288 4.11483 11.7248 3.48601C10.7208 2.8572 9.54102 2.52355 8.33529 2.52744Z" fill="#5A5A5A"/>
</svg>
