<svg width="27" height="25" viewBox="0 0 27 25" fill="none" xmlns="http://www.w3.org/2000/svg">
<path d="M18.584 15.6448H17.4096L16.9934 15.2715C18.5006 13.6454 19.3289 11.5694 19.3273 9.42244C19.3273 7.64481 18.7606 5.9071 17.6988 4.42905C16.6371 2.951 15.128 1.79901 13.3624 1.11873C11.5967 0.438465 9.6539 0.260475 7.77953 0.607274C5.90515 0.954072 4.18343 1.81008 2.83209 3.06706C1.48074 4.32403 0.560459 5.92552 0.187623 7.66899C-0.185213 9.41247 0.00613981 11.2196 0.737484 12.8619C1.46883 14.5043 2.70732 15.908 4.29633 16.8956C5.88535 17.8832 7.75353 18.4103 9.66462 18.4103C12.058 18.4103 14.2581 17.5945 15.9528 16.2394L16.3542 16.6266V17.7189L23.787 24.6188L26.002 22.5586L18.584 15.6448ZM9.66462 15.6448C5.96308 15.6448 2.97508 12.8655 2.97508 9.42244C2.97508 5.9794 5.96308 3.20007 9.66462 3.20007C13.3662 3.20007 16.3542 5.9794 16.3542 9.42244C16.3542 12.8655 13.3662 15.6448 9.66462 15.6448Z" fill="#5A5A5A"/>
</svg>
