<svg width="336" height="42" viewBox="0 0 336 42" fill="none" xmlns="http://www.w3.org/2000/svg">
<g clip-path="url(#clip0_1_609)">
<path d="M336 0H0V42H336V0Z" fill="white"/>
<path fill-rule="evenodd" clip-rule="evenodd" d="M156.863 13.0103H151.924V10.6357H164.37V13.0103H159.431V31.4131H156.863V13.0103ZM186.25 10.6357H197.412V13.0103H188.867V18.7983H197.214V21.1728H188.867V29.0386H197.412V31.4131H186.25V10.6357ZM225.021 20.5297L219.341 10.6357H222.304L226.552 18.2046L231.046 10.6357H233.96L227.984 20.5297L234.306 31.4626H231.392L226.502 22.9043L221.415 31.4626H218.501L225.021 20.5297ZM259.199 13.0103H254.21V10.6357H266.706V13.0103H261.767V31.4131H259.199V13.0103ZM288.487 10.6357H291.055V31.4131H288.487V10.6357ZM314.812 10.6357H317.38V29.0386H323.702V31.4131H314.812V10.6357Z" fill="#443D3C"/>
<path d="M139.675 2.86914H2.86462V39.1306H139.675V2.86914Z" fill="#443D3C"/>
<path fill-rule="evenodd" clip-rule="evenodd" d="M93.7422 23.6964V19.3925H104.806C104.855 19.5409 104.855 19.6893 104.855 19.8377C104.855 19.9861 104.855 20.2829 104.855 20.5798C104.855 24.1416 103.917 26.8624 102.04 28.8412C100.163 30.7706 97.5452 31.76 94.1373 31.76C92.5074 31.76 91.0257 31.5126 89.6922 31.0179C88.4081 30.5232 87.2227 29.7317 86.2349 28.7423C85.2471 27.7529 84.5063 26.5656 83.963 25.2299C83.4197 23.8943 83.1727 22.4596 83.1727 20.9755C83.1727 19.442 83.4197 18.0073 83.963 16.7211C84.5063 15.4349 85.2965 14.2476 86.3337 13.2087C87.3709 12.2193 88.5562 11.4278 89.8898 10.9331C91.2233 10.389 92.6556 10.1416 94.1867 10.1416C96.2117 10.1416 97.9897 10.5374 99.5702 11.3289C101.151 12.1204 102.435 13.3571 103.521 14.8907L98.6318 17.2653C98.0391 16.4738 97.397 15.8801 96.6562 15.4844C95.9153 15.0886 95.1251 14.8907 94.1867 14.8907C92.5568 14.8907 91.2233 15.4349 90.2355 16.5727C89.2477 17.7105 88.8032 19.2441 88.8032 21.1734C88.8032 23.1027 89.2477 24.6858 90.2355 25.8236C91.1739 26.9119 92.5074 27.5056 94.1867 27.5056C95.619 27.5056 96.8044 27.1593 97.7922 26.4667C98.7306 25.7741 99.2739 24.8342 99.422 23.6469L93.7422 23.6964Z" fill="white"/>
<path fill-rule="evenodd" clip-rule="evenodd" d="M69.5905 20.4311H70.5783C71.813 20.4311 72.702 20.2332 73.2453 19.8375C73.7886 19.4417 74.0849 18.7492 74.0849 17.9082C74.0849 16.8693 73.838 16.1272 73.2947 15.682C72.7514 15.2368 71.9118 14.9894 70.677 14.9894H69.5905V20.4311ZM64.3057 31.3145V10.6855H70.1337C72.4551 10.6855 74.0356 10.7845 74.9246 10.9824C75.863 11.1802 76.6532 11.5265 77.2953 12.0707C78.0361 12.6149 78.6288 13.3569 79.0239 14.1979C79.4191 15.0884 79.6166 16.0283 79.6166 17.0672C79.6166 18.6502 79.2215 19.9859 78.4313 20.9753C77.641 21.9647 76.505 22.6078 75.0233 23.0036L80.6538 31.3145H74.3319L69.5905 23.2509V31.3145H64.3057Z" fill="white"/>
<path fill-rule="evenodd" clip-rule="evenodd" d="M39.5614 31.3145L46.6736 10.6855H53.7363L60.8485 31.3145H55.2674L54.2302 27.6537H46.229L45.1425 31.3145H39.5614ZM47.4638 23.5972H53.0449L50.9211 16.8198C50.8717 16.6219 50.7729 16.2757 50.6741 15.781C50.5754 15.3357 50.4272 14.7421 50.2296 14C50.1309 14.4947 49.9827 14.9894 49.8839 15.4347C49.7851 15.8799 49.637 16.3251 49.4888 16.7704L47.4638 23.5972Z" fill="white"/>
<path fill-rule="evenodd" clip-rule="evenodd" d="M38.0797 31.3148H32.7949L31.6096 22.4102C31.5108 21.7671 31.412 21.0745 31.3626 20.283C31.2638 19.541 31.2145 18.7 31.1651 17.7601C31.0663 18.6505 30.7699 19.7389 30.3748 21.0251C30.276 21.2724 30.2267 21.4703 30.1773 21.6187L27.362 31.2654H23.7072L20.8919 21.6187C20.8426 21.4703 20.7932 21.2724 20.7438 21.0251C20.3487 19.7389 20.1017 18.6505 19.9535 17.7601C19.9041 18.5516 19.8548 19.2936 19.756 20.0851C19.6572 20.8272 19.6078 21.6187 19.509 22.3608L18.2743 31.2654H13.0389L16.1999 10.6364H21.7316L24.8431 21.2724C24.8431 21.3219 24.8925 21.4703 24.9419 21.6187C25.2383 22.5586 25.3864 23.3996 25.4852 24.0427C25.5346 23.6965 25.584 23.3007 25.6828 22.806C25.7816 22.3608 25.9297 21.8166 26.1273 21.223L29.2389 10.5869H34.8199L38.0797 31.3148Z" fill="white"/>
<path fill-rule="evenodd" clip-rule="evenodd" d="M129.451 21.0742C129.451 22.5583 129.155 23.9434 128.661 25.2296C128.118 26.5159 127.278 27.6537 126.241 28.6925C125.204 29.7314 124.018 30.4734 122.635 31.0176C121.252 31.5618 119.869 31.8586 118.437 31.8586C116.955 31.8586 115.523 31.5618 114.19 31.0671C112.807 30.5229 111.621 29.7314 110.634 28.6925C109.596 27.6537 108.757 26.4664 108.213 25.1802C107.67 23.8939 107.374 22.4593 107.374 21.0247C107.374 19.5406 107.67 18.1554 108.213 16.8692C108.757 15.583 109.596 14.3957 110.634 13.4063C111.621 12.3674 112.856 11.6254 114.19 11.0318C115.523 10.4876 116.955 10.2402 118.437 10.2402C119.869 10.2402 121.302 10.4876 122.685 11.0318C124.068 11.5759 125.253 12.3674 126.241 13.4063C127.278 14.4452 128.068 15.583 128.611 16.8692C129.155 18.2049 129.451 19.5901 129.451 21.0742Z" fill="white"/>
<path fill-rule="evenodd" clip-rule="evenodd" d="M123.722 21.0747C123.722 21.9157 123.574 22.7567 123.327 23.4987C123.08 24.2408 122.685 24.9333 122.141 25.527C121.648 26.1206 121.055 26.5658 120.413 26.8627C119.771 27.1595 119.079 27.3574 118.388 27.3574C117.647 27.3574 117.005 27.209 116.363 26.9121C115.721 26.6153 115.128 26.1206 114.634 25.527C114.14 24.9333 113.745 24.2408 113.449 23.4987C113.152 22.7567 113.054 21.9157 113.054 21.0747C113.054 20.2337 113.202 19.3927 113.449 18.6506C113.696 17.9086 114.091 17.216 114.634 16.6224C115.128 16.0287 115.671 15.5835 116.363 15.2372C117.005 14.9404 117.696 14.792 118.388 14.792C119.079 14.792 119.771 14.9404 120.413 15.2372C121.055 15.534 121.648 16.0287 122.141 16.6224C122.635 17.216 123.03 17.9086 123.277 18.6506C123.574 19.3927 123.722 20.1842 123.722 21.0747Z" fill="#443D3C"/>
</g>
<defs>
<clipPath id="clip0_1_609">
<rect width="336" height="42" fill="white"/>
</clipPath>
</defs>
</svg>
