<svg width="205" height="41" viewBox="0 0 205 41" fill="none" xmlns="http://www.w3.org/2000/svg">
<g clip-path="url(#clip0_1_642)">
<path d="M30.3471 29.9907C30.3471 37.0772 24.6806 41 16.3698 41C6.92568 41 1.51106 36.4444 0 29.2315H1.25921C2.89619 35.9383 8.05897 39.7346 16.2439 39.7346C23.7991 39.7346 28.9619 36.1914 28.9619 29.9907C28.9619 24.1698 24.4287 22.7778 15.8661 20.8796C6.29607 18.7284 1.13329 16.8302 1.13329 10.6296C1.13329 4.04938 6.92568 0 14.6069 0C22.5399 0 27.7027 3.41667 29.7174 8.85802H28.3323C26.1916 3.92284 21.4066 1.26543 14.7328 1.26543C7.80712 1.26543 2.39251 4.55556 2.39251 10.8827C2.39251 15.1852 5.2887 17.2099 16.1179 19.6142C24.5547 21.5123 30.3471 22.9043 30.3471 29.9907Z" fill="white"/>
<path d="M68.879 0.505859V25.0552C68.879 35.8114 62.331 40.9997 53.8943 40.9997C45.4576 40.9997 38.9097 35.938 38.9097 25.0552V0.505859H40.2948V25.0552C40.2948 35.0522 46.339 39.7343 53.8943 39.7343C61.4496 39.7343 67.4938 35.0522 67.4938 25.0552V0.505859H68.879Z" fill="white"/>
<path d="M81.2193 1.77129V18.9812H102.374V20.2466H81.2193V39.2281H103.633V40.4935H79.9601V0.505859H103.759V1.77129H81.2193Z" fill="white"/>
<path d="M124.158 23.9164H113.581V40.367H112.196V0.505859H126.551C135.617 0.505859 139.899 5.69413 139.899 12.0213C139.899 18.3485 135.617 23.7898 126.551 23.7898H125.921L140.78 40.4935H139.017L124.158 23.9164ZM113.581 22.6509H126.551C134.862 22.6509 138.639 17.7157 138.639 12.1478C138.639 6.57993 134.988 1.89783 126.551 1.89783H113.581V22.6509Z" fill="white"/>
<path d="M173.268 1.77129H159.039V40.4935H157.654V1.77129H143.55V0.505859H173.268V1.77129Z" fill="white"/>
<path d="M182.586 1.77129V18.9812H203.741V20.2466H182.586V39.2281H205V40.4935H181.201V0.505859H205V1.77129H182.586Z" fill="white"/>
</g>
<defs>
<clipPath id="clip0_1_642">
<rect width="205" height="41" fill="white"/>
</clipPath>
</defs>
</svg>
