<svg width="205" height="61" viewBox="0 0 205 61" fill="none" xmlns="http://www.w3.org/2000/svg">
<g clip-path="url(#clip0_1_620)">
<path d="M48.2634 5.48828C48.2634 13.2028 48.1838 28.075 48.1838 31.0176C48.1838 31.0971 48.1838 31.1767 48.1838 31.3357C47.8652 37.7777 44.0423 43.3449 38.547 46.1284C31.6181 51.1389 24.0521 54.002 13.4596 55.7516C18.3974 59.0919 24.291 61.0007 30.6624 61.0007C47.5466 61.0007 61.2451 47.3214 61.2451 30.4609C61.2451 20.1219 56.148 11.0554 48.2634 5.48828Z" fill="url(#paint0_linear_1_620)"/>
<path d="M37.5913 46.5256C25.4857 52.6494 14.9728 53.5243 4.38037 46.1279C6.69001 49.9454 9.79607 53.2062 13.4596 55.7511C24.0521 54.0015 31.6181 51.1384 38.547 46.1279C38.2285 46.287 37.9099 46.4461 37.5913 46.5256Z" fill="#858585"/>
<path d="M37.5913 46.5256C35.441 47.48 32.972 48.0367 30.5031 48.0367C20.7071 48.0367 12.7428 40.0836 12.7428 30.3014C12.7428 29.9832 12.7428 29.6651 12.7428 29.347V29.2675C12.7428 28.9493 12.8225 28.6312 12.8225 28.3131C14.0171 14.0771 13.7782 12.3274 17.3621 2.86328C7.08819 7.79418 0 18.2922 0 30.4604C0 36.1866 1.59285 41.5152 4.3007 46.1279C14.9728 53.5243 25.4856 52.6495 37.5913 46.5256Z" fill="url(#paint1_linear_1_620)"/>
<path d="M13.3004 26.0065C14.3357 19.485 16.8046 8.74837 28.3528 0C24.4503 0.238592 20.7071 1.27249 17.3621 2.8631C13.7782 12.3272 14.0968 14.0769 12.8225 28.3129C12.9818 27.5176 13.1411 26.7223 13.3004 26.0065Z" fill="#858585"/>
<path d="M13.3003 26.0069C15.2117 18.2925 22.2203 12.6458 30.5031 12.6458C32.3349 12.6458 34.1666 12.9639 35.8391 13.4411C36.2374 13.5206 36.6356 13.6797 37.1134 13.8388C44.2016 16.6223 49.2987 5.8857 41.9716 2.22729C38.4673 0.636674 34.7241 -0.0791016 30.6624 -0.0791016C29.8659 -0.0791016 29.1492 -0.0791016 28.3527 0.000429086C16.8046 8.7488 14.3356 19.4854 13.3003 26.0069Z" fill="url(#paint2_linear_1_620)"/>
<path d="M66.8998 14.4746H85.9344V19.4055H72.873V28.472H84.9786V33.4029H72.873V47.3208H66.8998V14.4746Z" fill="white"/>
<path d="M89.1201 14.9521C91.3501 14.5545 94.7747 14.2363 98.1994 14.2363C102.978 14.2363 106.164 15.0316 108.394 16.8608C110.225 18.3719 111.261 20.6783 111.261 23.4619C111.261 27.677 108.394 30.6196 105.288 31.7331V31.8921C107.597 32.767 109.031 35.0734 109.907 38.2546C110.942 42.3902 111.818 46.1281 112.535 47.4006H106.323C105.845 46.4462 105.049 43.7422 104.093 39.6066C103.137 35.3119 101.624 33.9599 98.1994 33.8804H95.173V47.4006H89.1998L89.1201 14.9521ZM95.0933 29.4267H98.6772C102.739 29.4267 105.288 27.2794 105.288 24.0186C105.288 20.4397 102.739 18.7696 98.8365 18.7696C96.9251 18.7696 95.7305 18.9286 95.0933 19.0877V29.4267Z" fill="white"/>
<path d="M124.72 32.29V36.4256H112.296V32.29H124.72Z" fill="white"/>
<path d="M156.816 30.6196C156.816 41.6744 150.126 47.9573 141.047 47.9573C131.729 47.9573 125.915 40.8791 125.915 31.2559C125.915 21.1555 132.286 13.9977 141.525 13.9977C151.162 13.9182 156.816 21.235 156.816 30.6196ZM132.286 31.0968C132.286 37.7774 135.631 43.1059 141.445 43.1059C147.259 43.1059 150.524 37.7774 150.524 30.8582C150.524 24.6548 147.418 18.7696 141.445 18.7696C135.472 18.7696 132.286 24.2572 132.286 31.0968Z" fill="white"/>
<path d="M159.285 30.6994C159.285 27.9954 159.205 25.689 159.126 23.6212H164.382L164.701 27.2H164.86C165.895 25.3708 168.444 23.0645 172.426 23.0645C176.568 23.0645 180.868 25.7685 180.868 33.2444V47.3213H174.895V33.9602C174.895 30.5403 173.621 27.9954 170.355 27.9954C167.966 27.9954 166.294 29.6655 165.657 31.4947C165.497 32.0514 165.418 32.7672 165.418 33.483V47.4008H159.365V30.6994H159.285Z" fill="white"/>
<path d="M188.833 37.1408C188.992 41.4355 192.337 43.2647 196.16 43.2647C198.947 43.2647 200.938 42.867 202.77 42.2308L203.646 46.3664C201.575 47.1617 198.788 47.7979 195.363 47.7979C187.638 47.7979 183.098 43.0261 183.098 35.7888C183.098 29.1878 187.08 22.9844 194.726 22.9844C202.451 22.9844 205 29.3468 205 34.5163C205 35.6297 204.92 36.5046 204.841 37.0613L188.833 37.1408ZM199.266 33.0052C199.345 30.7784 198.31 27.1995 194.328 27.1995C190.585 27.1995 189.071 30.5398 188.833 33.0052H199.266Z" fill="white"/>
</g>
<defs>
<linearGradient id="paint0_linear_1_620" x1="38.0154" y1="5.30966" x2="37.0427" y2="61.1168" gradientUnits="userSpaceOnUse">
<stop stop-color="#A4A4A4"/>
<stop offset="0.1963" stop-color="#626262"/>
<stop offset="1"/>
</linearGradient>
<linearGradient id="paint1_linear_1_620" x1="18.7957" y1="51.3984" x2="18.7957" y2="2.86328" gradientUnits="userSpaceOnUse">
<stop stop-color="#999999"/>
<stop offset="0.1963" stop-color="#505050"/>
<stop offset="1"/>
</linearGradient>
<linearGradient id="paint2_linear_1_620" x1="13.3003" y1="12.9639" x2="45.4875" y2="12.9639" gradientUnits="userSpaceOnUse">
<stop stop-color="#5A5A5A"/>
<stop offset="1"/>
</linearGradient>
<clipPath id="clip0_1_620">
<rect width="205" height="61" fill="white"/>
</clipPath>
</defs>
</svg>
