<svg width="206" height="76" viewBox="0 0 206 76" fill="none" xmlns="http://www.w3.org/2000/svg">
<g clip-path="url(#clip0_1_638)">
<path fill-rule="evenodd" clip-rule="evenodd" d="M194.587 26.3732C193.731 26.3732 192.59 26.9404 191.163 27.7911C189.737 28.6419 188.025 30.0598 186.598 31.7613C184.886 33.4628 183.46 34.8807 182.604 36.015C181.748 37.1493 181.463 38.0001 181.748 38.5672C181.748 39.1344 182.319 39.418 182.889 39.418C183.745 39.418 184.886 39.1344 186.313 38.2837C187.74 37.4329 189.166 36.5822 190.307 35.4478C190.878 34.8807 191.734 34.3135 192.305 33.4628C192.875 32.612 193.731 32.0448 194.302 31.1941C194.873 30.3434 195.443 29.7762 195.728 29.209C196.014 28.6419 196.299 28.0747 196.299 27.7911C196.299 26.9404 195.728 26.3732 194.587 26.3732ZM196.87 28.9254C198.011 27.7911 198.867 26.9404 199.723 26.3732C200.579 25.806 201.15 25.5225 201.72 25.5225C202.576 25.5225 203.147 25.5225 203.432 25.806C203.717 26.0896 203.432 26.3732 202.861 26.9404C202.291 27.5075 201.435 28.3583 200.579 29.4926C199.723 30.6269 198.867 31.4777 198.011 32.8956C197.44 33.4628 196.87 34.3135 196.299 35.1643C195.729 36.015 195.443 36.5822 194.873 37.4329C194.302 38.5672 194.302 39.1344 194.587 39.418C194.873 39.7016 195.158 39.7016 195.443 39.418C195.728 39.1344 196.299 39.1344 196.584 38.8508C197.155 38.5672 197.726 38.2837 198.296 37.7165C199.152 37.1493 199.723 36.5822 200.579 36.015C201.435 35.1643 202.291 34.5971 203.147 34.0299C203.717 33.4628 204.288 32.8956 204.859 32.612C205.144 32.3284 205.429 32.0448 205.715 32.0448C206 32.0448 206 31.7613 206.285 32.0448C206.571 32.3284 206 32.612 205.144 33.4628C204.573 34.0299 203.717 34.5971 202.861 35.4478C202.005 36.2986 201.15 36.8657 200.294 37.7165C199.438 38.2837 198.296 39.1344 196.87 39.9851C195.443 40.8359 194.017 41.1195 192.59 41.1195C191.734 41.1195 191.163 40.8359 190.593 40.5523C190.307 40.2687 190.022 39.7016 190.022 39.1344C190.022 38.5672 190.022 38.2837 190.307 37.7165C190.593 37.1493 190.878 36.5822 191.163 36.2986C190.593 36.8657 190.022 37.4329 189.166 38.0001C188.31 38.5672 187.454 39.1344 186.884 39.418C186.028 39.9851 185.172 40.2687 184.316 40.8359C183.46 41.1195 182.604 41.4031 181.748 41.4031C180.892 41.4031 179.751 41.1195 179.18 40.8359C178.609 40.5523 178.039 39.418 178.324 38.0001C178.324 37.4329 178.609 36.5822 178.895 36.015C179.18 35.1643 179.751 34.5971 180.607 33.4628C180.607 33.4628 180.321 33.7463 180.036 34.0299C179.751 34.3135 179.751 34.3135 179.465 34.5971C179.18 34.8807 178.895 34.8807 178.609 34.8807C178.324 34.5971 178.895 34.0299 179.751 33.1792C179.751 33.1792 180.321 32.612 180.892 32.3284C181.463 32.0448 182.033 31.4777 182.604 31.1941C183.174 30.9105 183.745 30.6269 184.316 30.0598C184.886 29.4926 185.742 29.209 186.598 28.6419C188.31 27.7911 190.022 27.224 191.449 26.6568C192.305 25.5225 193.731 25.5225 194.873 25.5225C195.729 25.5225 196.299 26.0896 196.584 26.6568C196.87 27.5075 197.155 28.0747 196.87 28.9254Z" fill="white"/>
<path fill-rule="evenodd" clip-rule="evenodd" d="M172.618 28.0746C172.332 28.0746 171.762 28.6418 170.906 28.9254C170.05 29.4925 169.479 30.0597 168.623 30.6269C168.053 31.194 167.482 31.4776 166.911 32.0448C166.341 32.3284 166.055 32.8955 165.485 33.1791C164.914 34.0299 164.343 34.0299 164.343 34.0299C164.343 34.0299 164.343 33.7463 164.343 33.4627C164.629 33.1791 164.914 32.8955 165.199 32.6119C165.485 32.3284 165.77 32.0448 166.341 31.7612C166.911 31.4776 167.482 30.9104 168.053 30.3433C168.623 29.7761 169.194 29.4925 169.765 28.9254C170.335 28.3582 170.906 28.0746 171.476 27.791C172.618 26.9403 173.474 26.3731 174.33 26.3731C174.9 26.0896 175.756 26.0896 176.612 26.0896C177.468 26.0896 178.039 26.0896 178.324 26.3731C178.609 26.6567 178.324 26.9403 177.753 27.5075C176.327 29.209 174.615 30.9104 172.903 33.1791C172.047 34.0299 171.476 34.8806 170.906 35.7313C170.335 36.5821 170.05 37.1493 169.765 37.4328C169.194 38.2836 169.194 38.8507 169.479 39.4179C169.765 39.7015 170.62 39.7015 171.476 39.1343C172.047 38.8507 172.618 38.5672 173.188 38.2836C173.759 37.7164 174.615 37.4328 175.471 36.5821C176.327 35.7313 177.183 35.1642 177.753 34.597C178.324 34.0299 178.895 33.4627 179.751 32.8955C180.607 32.3284 180.892 32.0448 181.177 32.0448C181.177 32.0448 181.177 32.3284 180.892 32.6119C180.607 32.8955 180.321 33.1791 180.321 33.1791C179.751 33.7463 179.18 34.3134 178.039 35.1642C177.183 36.0149 176.042 36.8657 175.186 37.4328C174.33 38 173.188 38.8507 171.762 39.7015C170.335 40.5522 168.909 41.1194 167.482 41.1194C165.77 41.1194 164.914 40.2687 164.914 38.8507C164.914 38.2836 165.199 37.7164 165.199 37.1493C165.199 36.5821 165.77 36.0149 166.055 35.4478C166.341 34.8806 166.911 34.0299 167.482 33.1791C168.053 32.3284 168.623 31.7612 169.479 30.9104C170.05 30.3433 170.62 29.4925 171.191 28.9254C171.762 28.9254 172.047 28.3582 172.618 28.0746ZM184.886 13.8955C185.457 13.8955 185.742 14.1791 186.028 14.4627C186.313 14.7463 186.028 15.3134 185.457 16.1642C184.886 16.7313 184.316 17.5821 183.46 17.8657C182.604 18.4328 182.033 18.4328 181.463 18.4328C181.177 18.1493 181.177 17.8657 181.177 17.0149C181.177 16.1642 181.177 15.8806 181.463 15.3134C181.748 14.7463 182.319 14.1791 182.889 13.8955C183.46 13.6119 184.03 13.8955 184.886 13.8955ZM150.078 41.403C146.654 41.403 145.227 40.2687 145.512 37.7164C145.512 36.8657 145.798 36.0149 146.368 35.1642C146.939 34.3134 147.224 33.4627 148.08 32.6119C148.08 32.6119 147.795 32.8955 147.51 33.1791C147.224 33.4627 146.939 33.7463 146.654 34.0299C146.083 34.597 145.798 34.597 145.512 34.597C145.512 34.597 145.512 34.3134 145.512 34.0299C145.798 33.7463 145.798 33.7463 146.083 33.4627C146.654 32.8955 147.224 32.6119 147.795 32.0448C148.366 31.7612 148.936 31.194 149.507 30.6269C150.078 30.3433 150.648 29.7761 151.504 29.209C152.36 28.6418 153.216 28.3582 153.787 27.791C155.213 26.9403 156.64 26.3731 158.066 25.806C158.637 25.5224 160.064 25.5224 161.205 25.5224C162.061 25.806 162.917 26.0896 163.202 26.6567C163.488 27.2239 163.773 28.0746 163.488 28.9254C163.202 29.7761 162.917 30.3433 162.346 30.9104C161.776 31.4776 161.205 31.7612 160.634 31.7612C159.778 31.7612 159.493 31.4776 159.493 30.9104C159.493 30.3433 159.493 29.7761 160.064 29.209C160.634 28.3582 160.92 27.791 160.92 27.2239C160.92 26.6567 160.92 26.3731 160.349 26.3731C159.208 26.0896 157.496 27.5075 154.928 30.0597C153.787 31.194 152.645 32.6119 151.789 34.0299C150.934 35.4478 150.363 36.8657 150.078 37.7164C149.792 39.1343 150.648 39.7015 152.075 39.7015C152.645 39.7015 153.787 39.4179 155.213 39.1343C156.64 38.8507 158.352 38 160.349 36.5821C161.205 36.0149 162.061 35.1642 162.917 34.597C163.773 33.7463 164.914 33.1791 165.485 32.3284C166.055 32.0448 166.341 31.7612 166.341 32.0448C166.341 32.3284 166.341 32.6119 165.77 33.1791C165.199 33.7463 164.343 34.3134 163.488 35.1642C162.632 36.0149 161.49 36.5821 160.634 37.1493C159.208 38.2836 157.496 39.1343 155.499 39.7015C153.501 40.2687 151.504 41.403 150.078 41.403ZM133.814 41.1194C132.958 41.1194 132.388 40.8358 131.817 40.5522C131.247 40.2687 131.247 39.7015 131.247 38.8507C131.247 38 131.817 36.8657 132.673 35.7313C133.529 34.597 134.385 33.7463 134.956 32.6119C135.526 31.7612 136.097 31.194 136.953 30.3433C137.809 29.4925 138.094 28.9254 138.665 28.3582C138.95 28.0746 138.95 27.791 138.95 27.791C138.95 27.5075 138.95 27.5075 138.665 27.2239C138.38 27.2239 138.094 27.2239 137.809 27.2239C137.524 27.2239 136.953 27.5075 136.382 27.791C135.526 28.0746 134.67 28.6418 133.244 29.4925C131.817 30.3433 130.676 31.194 129.249 32.3284C128.393 33.1791 127.252 33.7463 126.681 34.3134C125.825 34.8806 125.255 35.7313 124.399 36.2985C123.543 36.8657 122.972 37.4328 122.116 38.2836C121.26 38.8507 120.404 39.7015 119.548 40.2687C118.978 40.8358 118.122 41.1194 117.266 41.1194C116.695 41.1194 116.125 41.1194 115.839 40.8358C115.554 40.8358 115.554 40.2687 116.125 39.7015C116.41 39.1343 116.981 38.2836 117.837 37.1493C118.693 36.0149 119.263 34.8806 120.119 34.0299C120.69 33.4627 121.26 32.6119 121.831 31.7612C122.402 30.9104 123.258 30.0597 123.543 29.4925C124.114 28.6418 124.399 28.3582 124.114 28.0746C123.828 27.791 123.543 27.791 122.687 28.0746C122.116 28.3582 121.546 28.6418 120.975 29.209C120.404 29.7761 119.834 30.0597 119.263 30.6269C118.693 31.194 118.122 31.4776 117.266 32.0448C116.695 32.6119 115.839 33.1791 115.269 33.7463C114.413 34.3134 113.842 34.597 113.842 34.597C113.842 34.3134 114.127 33.7463 115.269 32.8955C115.839 32.3284 116.41 31.7612 117.266 30.9104C118.122 30.0597 118.978 29.4925 119.834 28.6418C120.975 27.791 122.116 26.9403 122.972 26.3731C123.828 25.806 124.97 25.5224 125.825 25.5224C126.681 25.5224 127.252 25.806 127.537 26.0896C128.108 26.6567 128.393 27.2239 128.393 27.5075C128.393 28.0746 128.108 28.6418 127.823 29.209C127.537 29.7761 126.967 30.6269 126.396 31.194C125.825 32.0448 124.97 33.1791 124.114 34.0299C123.258 34.8806 122.687 36.0149 122.116 36.5821C123.258 35.7313 124.399 34.597 125.825 33.4627C127.252 32.3284 128.679 31.194 130.105 30.0597C131.532 28.9254 133.244 27.791 134.956 26.9403C137.238 26.0896 138.665 25.5224 140.091 25.5224C142.089 25.5224 142.945 26.3731 142.659 27.791C142.659 28.6418 142.089 29.4925 141.233 30.3433C140.377 31.194 139.806 32.3284 138.95 33.1791C138.38 34.0299 137.524 34.597 137.238 35.4478C136.953 36.2985 136.382 36.5821 136.097 36.8657C135.526 37.7164 135.241 38.5672 135.812 38.8507C136.097 39.1343 136.382 39.1343 136.668 38.8507C136.953 38.5672 137.524 38.5672 137.809 38.2836C138.38 38 138.95 37.7164 139.521 37.4328C140.091 37.1493 140.947 36.5821 142.089 35.7313C142.945 35.1642 143.515 34.597 144.371 33.7463C145.227 33.1791 145.798 32.6119 146.368 32.0448C146.939 31.4776 147.224 31.4776 147.51 31.4776C147.51 31.7612 147.51 32.0448 146.939 32.6119C146.654 32.8955 145.798 33.7463 144.657 34.597C143.515 35.4478 142.659 36.2985 141.518 37.1493C140.947 37.4328 140.662 38 139.806 38.2836C139.235 38.5672 138.665 39.1343 137.809 39.4179C137.238 39.7015 136.382 39.9851 135.526 40.2687C134.67 40.5522 134.385 41.1194 133.814 41.1194ZM105.283 26.3731C104.427 26.3731 103.285 26.9403 101.859 28.0746C100.432 29.209 99.0055 30.3433 97.2936 32.0448C95.5817 33.7463 94.1551 35.1642 93.2992 36.2985C92.4432 37.4328 92.1579 38.2836 92.4432 38.8507C92.4432 39.4179 93.0138 39.7015 93.5845 39.7015C94.4404 39.7015 95.5817 39.4179 97.0083 38.5672C98.4349 37.7164 99.8615 36.8657 101.003 35.7313C101.573 35.1642 102.429 34.597 103 33.7463C103.571 32.8955 104.427 32.3284 104.997 31.4776C105.568 30.6269 106.139 30.0597 106.424 29.4925C106.709 28.9254 106.994 28.3582 106.994 28.0746C106.994 26.9403 106.424 26.3731 105.283 26.3731ZM107.565 28.9254C108.706 27.791 109.562 26.9403 110.418 26.3731C110.989 25.806 111.845 25.5224 112.416 25.5224C113.557 25.5224 114.127 25.5224 114.127 25.806C114.127 26.0896 114.127 26.3731 113.557 26.9403C112.986 27.5075 112.13 28.3582 111.274 29.4925C110.418 30.6269 109.562 31.4776 108.421 32.8955C107.85 33.4627 107.28 34.3134 106.709 35.1642C106.139 36.0149 105.853 36.5821 105.283 37.4328C104.712 38.5672 104.712 39.1343 104.997 39.4179C105.283 39.7015 105.568 39.7015 105.853 39.4179C106.139 39.1343 106.709 39.1343 106.994 38.8507C107.565 38.5672 108.136 38.2836 108.706 37.7164C109.562 37.1493 110.133 36.5821 110.989 36.0149C111.845 35.1642 112.701 34.597 113.557 34.0299C114.127 33.4627 114.983 32.8955 115.269 32.3284C115.554 32.0448 115.839 31.7612 116.125 31.7612C116.41 31.7612 116.41 31.4776 116.695 31.7612C116.981 32.0448 116.41 32.3284 115.554 33.1791C114.983 33.7463 114.127 34.3134 113.271 35.1642C112.416 36.0149 111.56 36.5821 110.704 37.4328C109.848 38 108.706 38.8507 107.28 39.7015C105.853 40.5522 104.427 40.8358 103 40.8358C102.144 40.8358 101.573 40.5522 101.003 40.2687C100.717 39.9851 100.432 39.4179 100.432 38.8507C100.432 38.2836 100.432 38 100.717 37.4328C101.003 36.8657 101.288 36.2985 101.573 35.7313C101.003 36.2985 100.432 36.8657 99.5762 37.4328C98.7202 38 98.1496 38.5672 97.2936 38.8507C96.4377 39.1343 95.5817 39.7015 94.7258 40.2687C93.8698 40.5522 93.0138 40.8358 92.1579 40.8358C91.3019 40.8358 90.1607 40.5522 89.59 40.2687C89.0194 39.9851 88.4488 38.8507 88.7341 37.4328C88.7341 36.8657 89.0194 36.0149 89.3047 35.4478C89.59 34.597 90.1607 34.0299 91.0166 32.8955C91.0166 32.8955 90.7313 33.1791 90.446 33.4627C90.1607 33.7463 90.1607 33.7463 89.8754 34.0299C89.59 34.3134 89.3047 34.3134 89.0194 34.3134C88.7341 34.0299 89.3047 33.4627 90.1607 32.6119C90.1607 32.6119 90.7313 32.0448 91.3019 31.7612C91.8726 31.4776 92.4432 30.9104 92.7285 30.6269C93.2992 30.3433 93.8698 30.0597 94.4404 29.4925C95.0111 28.9254 95.867 28.6418 96.723 28.0746C98.4349 27.2239 100.147 26.6567 101.573 26.0896C103.285 25.5224 104.427 25.5224 105.568 25.5224C106.424 25.5224 106.994 26.0896 107.28 26.6567C107.85 27.5075 107.85 28.0746 107.565 28.9254ZM71.9003 28.0746C73.3269 27.2239 75.0388 26.6567 76.7507 26.0896C78.1773 25.5224 79.6039 25.5224 80.7452 25.5224C81.6011 25.5224 82.1717 26.0896 82.4571 26.6567C82.7424 27.2239 82.7424 27.791 82.7424 28.6418C83.5983 27.5075 84.4543 26.6567 85.0249 26.3731C85.8809 25.806 86.4515 25.5224 87.0222 25.5224C88.7341 25.5224 89.0194 26.0896 88.1634 26.9403C87.3075 27.791 86.7368 28.9254 85.8809 29.7761C85.3102 30.6269 84.4543 31.7612 83.5983 32.8955C82.7424 33.7463 81.8864 35.1642 80.4598 37.1493C79.0332 39.1343 77.892 40.8358 76.4654 42.5373C77.3213 41.9701 78.7479 41.1194 80.4598 39.9851C82.1717 38.8507 83.5983 38 85.0249 36.8657C85.8809 36.0149 87.0222 35.4478 87.8781 34.597C88.7341 34.0299 89.59 33.1791 90.446 32.3284C91.0166 31.7612 91.3019 31.7612 91.5873 31.7612C91.5873 31.7612 91.5873 32.0448 91.3019 32.3284C91.0166 32.6119 90.7313 32.8955 90.7313 33.1791C90.1607 33.7463 89.3047 34.597 88.4488 35.1642C87.5928 35.7313 86.4515 36.5821 85.5956 37.4328C83.8837 38.5672 82.4571 39.7015 80.7452 40.8358C79.0332 41.9701 77.3213 42.8209 75.8947 43.6716C75.0388 45.0896 73.8975 46.5075 72.7562 47.9254C71.615 49.3433 70.4737 51.0448 69.3324 52.4627C68.1911 53.8806 67.0499 55.2985 66.1939 56.4328C65.338 57.5672 64.482 58.7015 63.9114 59.2687C61.0582 62.6716 57.9197 65.5075 54.4958 68.0597C51.072 70.6119 48.2188 72.597 45.651 74.0149C43.3684 75.1493 41.3712 76 39.6593 76C39.0886 76 38.518 76 37.9474 75.7164C37.3767 75.7164 36.8061 75.4328 36.5208 75.1493C36.2355 74.8657 35.9501 74.5821 35.6648 74.0149C35.3795 73.4478 35.3795 72.8806 35.6648 72.0299C35.9501 70.6119 36.5208 69.194 37.662 67.7761C38.8033 66.3582 40.5152 64.6567 42.2271 63.2388C43.9391 61.8209 45.9363 60.403 47.9335 58.7015C49.9307 57.2836 51.6427 55.8657 53.3546 55.0149C55.3518 53.597 57.0637 52.7463 58.7756 51.6119C60.2022 50.7612 61.6288 49.9104 63.0554 49.0597C64.482 48.209 65.6233 47.3582 67.0499 46.791C68.4765 45.9403 69.6177 45.0896 71.3296 44.2388C71.615 43.6716 72.1856 43.1045 72.7562 42.2537C73.3269 41.403 73.8975 40.8358 74.4681 39.9851C75.0388 39.1343 75.6094 38.5672 75.8947 37.7164C76.4654 36.8657 76.7507 36.2985 77.3213 35.7313C76.7507 36.2985 76.1801 36.8657 75.3241 37.4328C74.4681 38 73.8975 38.5672 73.0416 38.8507C72.1856 39.4179 71.3296 39.7015 70.4737 39.9851C69.6177 40.2687 68.7618 40.5522 67.9058 40.5522C67.0499 40.5522 65.9086 40.5522 65.338 39.9851C64.482 39.4179 64.1967 38.5672 64.482 37.1493C64.482 36.5821 64.7673 35.7313 65.0526 35.1642C65.338 34.3134 65.9086 33.7463 66.7645 32.6119C66.7645 32.6119 66.4792 32.8955 66.1939 33.1791C65.9086 33.4627 65.9086 33.4627 65.6233 33.7463C65.338 34.0299 65.0526 34.0299 64.7673 34.0299C64.7673 34.0299 64.7673 33.7463 65.0526 33.4627C65.338 33.1791 65.6233 32.8955 66.1939 32.3284C66.1939 32.3284 66.7645 32.0448 67.0499 31.4776C67.6205 30.9104 68.1911 30.6269 68.4765 30.3433C69.0471 30.0597 69.6177 29.7761 70.1884 29.209C70.1884 28.9254 71.0443 28.6418 71.9003 28.0746ZM80.4598 26.3731C79.6039 26.3731 78.4626 26.9403 77.036 28.0746C75.6094 29.209 74.1828 30.3433 72.4709 32.0448C70.759 33.7463 69.3324 35.1642 68.4765 36.2985C67.6205 37.4328 67.3352 38.2836 67.6205 38.8507C67.6205 39.4179 68.1911 39.7015 68.7618 39.7015C69.6177 39.7015 70.759 39.4179 72.1856 38.5672C73.6122 37.7164 75.0388 36.8657 76.1801 35.7313C76.7507 35.1642 77.6067 34.597 78.1773 33.7463C78.7479 32.8955 79.6039 32.3284 80.1745 31.4776C80.7452 30.6269 81.3158 30.0597 81.6011 29.4925C81.8864 28.9254 82.1717 28.3582 82.1717 28.0746C82.1717 26.9403 81.6011 26.3731 80.4598 26.3731ZM70.1884 45.9403C68.7618 46.791 67.6205 47.6418 66.4792 48.209C65.338 48.7761 63.9114 49.6269 62.4848 50.4776C61.0582 51.3284 59.6316 52.1791 57.9197 53.3134C56.4931 54.1642 54.4958 55.5821 52.4986 56.7164C50.5014 57.8507 48.7895 59.2687 47.0776 60.6866C45.3657 62.1045 43.9391 63.2388 42.5125 64.6567C41.0859 66.0746 40.2299 67.209 39.374 68.6269C38.518 70.0448 38.2327 71.1791 37.9474 72.3134C37.9474 73.7313 38.2327 74.2985 39.374 74.5821C39.9446 74.8657 41.0859 74.8657 41.9418 74.2985C43.0831 74.0149 43.9391 73.4478 44.795 73.1642C46.7922 72.0298 49.0748 70.3284 51.6427 67.7761C54.2105 65.2239 57.349 61.8209 60.7729 57.5672C62.4848 55.2985 64.1967 53.3134 65.9086 51.0448C67.9058 48.7761 69.3324 47.0746 70.1884 45.9403ZM51.072 35.1642C51.928 34.8806 53.0693 34.597 53.9252 34.3134C55.0665 33.7463 55.9224 33.4627 57.0637 32.6119C58.205 31.7612 59.0609 31.194 59.6316 30.3433C60.2022 29.4925 60.4875 28.9254 60.4875 28.0746C60.4875 27.2239 60.2022 26.9403 59.3463 26.9403C58.4903 26.9403 57.349 27.791 55.3518 29.4925C54.7812 30.0597 53.9252 30.9104 52.7839 32.3284C52.2133 33.1791 51.3573 34.3134 51.072 35.1642ZM51.928 39.9851C52.4986 39.9851 53.3546 39.7015 54.7812 39.4179C56.2078 39.1343 57.9197 38 59.9169 36.8657C60.7729 36.2985 61.6288 35.7313 62.4848 34.8806C63.3407 34.0299 64.482 33.4627 65.0526 32.6119C65.6233 32.3284 65.9086 32.0448 65.9086 32.3284C66.1939 32.6119 65.9086 32.8955 65.338 33.4627C64.7673 34.0299 63.9114 34.597 62.7701 35.7313C61.6288 36.8657 60.7729 37.4328 59.9169 38C56.2078 40.2687 53.0693 41.6866 49.9307 41.6866C46.7922 41.6866 45.0803 40.5522 45.3657 38.2836C45.3657 36.5821 46.2216 34.8806 47.9335 32.8955C47.9335 32.8955 47.6482 33.1791 47.0776 33.4627C46.7922 33.7463 46.5069 34.0299 46.2216 34.3134C45.9363 34.597 45.651 34.8806 45.3657 34.597C45.3657 34.597 45.3657 34.3134 45.3657 34.0299C45.3657 33.7463 45.651 33.7463 45.9363 33.4627C46.5069 32.8955 47.0776 32.6119 47.3629 32.0448C47.9335 31.7612 48.5042 31.194 49.0748 30.6269C49.6454 30.3433 50.2161 29.7761 51.072 29.4925C51.928 29.209 52.7839 28.6418 53.3546 28.0746C54.7812 27.5075 55.9224 26.9403 57.349 26.3731C58.4903 25.806 59.9169 25.5224 61.0582 25.5224C61.9141 25.5224 62.7701 25.806 63.0554 26.3731C63.3407 26.9403 63.626 27.5075 63.626 28.0746C63.626 29.209 62.7701 30.3433 61.6288 31.194C60.4875 32.0448 59.3463 32.8955 57.9197 33.4627C56.4931 34.0299 55.3518 34.597 53.9252 35.1642C52.4986 35.7313 51.3573 36.0149 50.5014 36.2985C50.2161 36.8657 49.9307 37.7164 49.9307 38.2836C49.9307 39.4179 50.5014 39.9851 51.928 39.9851ZM35.9501 29.7761C35.3795 30.3433 34.5235 30.9104 33.9529 31.4776C33.3823 32.0448 32.8116 32.6119 32.241 32.8955C31.6704 33.1791 31.385 33.4627 31.385 33.1791C31.385 32.8955 31.385 32.6119 31.6704 32.3284C31.6704 32.3284 31.9557 32.0448 32.5263 31.7612C33.097 31.4776 33.3823 30.9104 33.9529 30.3433C34.5235 29.7761 35.3795 29.209 35.9501 28.6418C36.5208 28.0746 37.3767 27.5075 37.9474 26.9403C38.518 26.3731 39.374 25.5224 39.9446 24.3881C40.8006 23.5373 41.6565 22.403 42.5125 21.2687C43.3684 20.1343 44.5097 19 45.3657 17.8657C46.2216 16.7313 47.3629 15.597 48.2188 14.4627C49.6454 12.7612 51.3573 11.0597 53.0693 9.07463C54.7812 7.08955 56.7784 5.38806 58.4903 3.68657C59.6316 2.55224 60.7729 2.26866 61.6288 2.26866C62.4848 2.26866 63.0554 2.55224 63.0554 2.83582C62.7701 3.1194 61.9141 3.97015 60.7729 5.10448C59.6316 6.23881 58.4903 7.65672 57.349 9.07463C55.9224 10.4925 54.7812 11.9104 53.3546 13.3284C51.928 14.7463 50.7867 16.1642 49.9307 17.2985C48.5042 19 47.0776 20.9851 45.3657 22.6866C43.9391 24.6716 42.5125 26.3731 41.0859 28.0746C39.9446 29.7761 38.8033 31.4776 37.662 32.8955C36.8061 34.3134 35.9501 35.7313 35.3795 36.5821C35.3795 36.8657 35.0942 37.1493 35.0942 37.7164C35.0942 38.2836 35.0942 38.5672 35.3795 38.8507C35.6648 39.1343 35.9501 39.1343 36.8061 38.8507C37.662 38.5672 37.9474 38.5672 38.2327 38.2836C38.8033 38 39.374 37.7164 39.9446 37.1493C40.5152 36.5821 41.0859 36.2985 41.9418 35.7313C42.7978 35.1642 43.3684 34.597 43.9391 34.0299C44.5097 33.4627 45.0803 33.1791 45.651 32.6119C45.9363 32.3284 45.9363 32.3284 46.2216 32.0448C46.5069 31.7612 46.7922 31.7612 46.7922 32.0448C46.7922 32.3284 46.7922 32.6119 46.2216 33.1791C45.651 33.7463 44.795 34.3134 43.9391 35.1642C43.0831 36.0149 41.9418 36.8657 40.8006 37.7164C40.2299 38 39.9446 38.5672 39.374 38.8507C38.8033 39.1343 38.2327 39.7015 37.3767 39.9851C36.8061 40.2687 35.9501 40.5522 35.0942 40.8358C34.2382 41.1194 33.6676 41.1194 32.8116 41.1194C31.9557 41.1194 31.385 40.8358 30.8144 40.5522C30.2438 40.2687 30.2438 39.7015 30.2438 38.8507C30.2438 37.7164 30.8144 36.5821 31.6704 34.8806C33.6676 33.1791 34.8089 31.4776 35.9501 29.7761ZM21.3989 20.4179C21.6842 20.9851 21.9695 21.5522 22.8255 21.8358C23.9668 22.403 24.8227 22.403 25.6787 22.6866C26.5346 22.6866 27.1053 22.6866 27.9612 22.403C28.8172 22.1194 28.8172 21.8358 28.8172 21.5522C28.8172 21.2687 28.5319 20.9851 27.6759 20.7015C27.1053 20.4179 26.2493 20.4179 25.6787 20.4179C25.108 20.4179 24.5374 20.4179 23.6814 20.4179C22.8255 20.4179 21.9695 20.4179 21.3989 20.4179ZM31.0997 5.10448C29.9584 3.97015 28.8172 2.83582 27.1053 1.98507C25.3934 1.13433 23.6814 0.850746 21.9695 0.850746C20.5429 0.850746 19.1163 1.41791 17.9751 2.26866C16.8338 3.1194 16.5485 4.25373 16.5485 5.95522C16.5485 7.08955 16.8338 8.22388 17.4044 9.07463C17.9751 9.92537 18.831 11.0597 19.9723 11.9104C20.2576 11.6269 20.5429 11.3433 20.8283 10.7761C21.1136 10.4925 21.3989 10.209 21.6842 9.92537C24.2521 7.65672 27.3906 6.23881 31.0997 5.10448ZM35.0942 15.8806C36.5208 15.8806 37.9474 15.8806 39.374 15.597C40.8006 15.3134 41.9418 15.0299 42.7978 14.4627C43.9391 13.8955 44.795 13.3284 45.3657 12.4776C45.9363 11.6269 46.2216 10.7761 46.2216 9.92537C46.2216 8.79105 45.9363 7.9403 44.795 6.80597C43.6537 5.67164 41.9418 5.10448 39.374 5.10448C37.3767 5.10448 35.3795 5.38806 33.3823 6.23881C34.2382 7.37313 34.5235 8.50746 34.8089 9.92537C35.0942 11.3433 34.8089 12.194 34.5235 12.194C34.5235 12.194 34.2382 12.194 34.2382 11.9104C34.2382 11.6269 34.2382 11.3433 33.9529 10.4925C33.6676 9.92537 33.6676 9.07463 33.097 8.50746C32.8116 7.9403 32.241 7.08955 31.9557 6.80597C30.8144 7.37313 29.6731 7.9403 28.8172 8.79104C27.9612 9.35821 26.8199 10.209 25.964 11.0597C25.6787 11.3433 25.108 11.6269 24.8227 12.194C24.2521 12.7612 23.6814 13.3284 23.3961 13.8955C25.108 14.7463 26.8199 15.3134 28.8172 15.597C30.8144 15.8806 32.8116 15.8806 35.0942 15.8806ZM17.4044 17.5821C17.4044 16.7313 17.6898 15.8806 17.9751 15.0299C18.2604 14.1791 18.831 13.3284 19.4017 12.4776C18.2604 11.6269 17.4044 10.7761 16.5485 9.64179C15.9778 8.50746 15.6925 7.37313 15.6925 5.95522C15.6925 4.25373 16.2632 2.83582 17.4044 1.70149C18.5457 0.567164 20.2576 0 21.9695 0C23.6814 0 25.3934 0.283582 27.6759 1.13433C29.6731 1.98507 31.385 3.1194 32.8116 4.8209C33.9529 4.53731 34.8089 4.53731 35.9501 4.53731C37.0914 4.53731 38.2327 4.53731 39.0886 4.53731C41.9418 4.53731 44.2244 5.10448 45.9363 6.23881C47.6482 7.37313 48.5042 8.50746 48.5042 9.92537C48.5042 11.0597 48.2188 11.9104 47.3629 12.7612C46.5069 13.6119 45.651 14.1791 44.5097 14.7463C43.3684 15.3134 41.9418 15.8806 40.2299 16.1642C38.518 16.7313 37.0914 17.0149 35.0942 17.0149C32.8116 17.0149 30.5291 16.7313 28.5319 16.4478C26.5346 15.8806 24.5374 15.3134 22.8255 14.4627C22.5402 14.7463 22.5402 15.0299 22.2548 15.597C21.9695 16.1642 21.6842 16.4478 21.3989 17.0149C21.1136 18.1493 21.1136 19 21.3989 19.8507C21.9695 19.8507 22.5402 19.5672 23.3961 19.5672C24.2521 19.5672 25.108 19.5672 25.6787 19.5672C27.1053 19.5672 28.2465 19.8507 29.1025 20.1343C29.9584 20.4179 30.5291 20.9851 30.5291 21.8358C30.5291 22.403 29.9585 22.9701 28.8172 23.2537C27.6759 23.2537 26.8199 23.5373 25.6787 23.5373C24.2521 23.5373 22.8255 23.2537 21.3989 22.6866C19.9723 22.403 19.1163 21.8358 18.5457 20.9851C17.4044 21.5522 15.9778 22.1194 14.5512 23.2537C13.1247 24.1045 11.6981 25.2388 10.5568 26.3731C9.13019 27.791 7.98892 29.209 7.13296 30.9104C6.27701 32.6119 5.70637 34.3134 5.42105 36.0149C5.42105 38 5.99169 39.7015 7.41828 40.8358C8.84488 41.9701 10.5568 42.5373 12.8393 42.5373C15.4072 42.5373 17.9751 41.9701 19.9723 41.1194C21.9695 40.2687 23.9668 39.1343 25.6787 38C26.2493 37.7164 26.8199 37.1493 27.3906 36.5821C27.9612 36.0149 28.5319 35.7313 29.1025 35.1642C29.6731 34.597 30.2438 34.3134 30.5291 33.7463C31.0997 33.4627 31.385 32.8955 31.6704 32.8955C32.241 32.3284 32.5263 32.3284 32.8116 32.3284V32.6119C32.8116 32.6119 32.5263 33.1791 31.9557 33.4627C31.6704 33.7463 31.385 34.0299 30.8144 34.597C30.2438 35.1642 29.6731 35.4478 29.1025 36.0149C28.5319 36.2985 27.9612 36.8657 27.3906 37.1493C26.8199 37.7164 26.2493 38 25.6787 38.2836C23.9668 39.7015 21.9695 40.5522 19.687 41.6866C17.4044 42.8209 15.1219 43.1045 12.554 43.3881C8.84488 43.6716 5.70637 43.1045 3.42382 41.6866C1.14127 40.5522 0 38.5672 0 35.7313C0 34.3134 0.285319 32.6119 1.14127 30.9104C1.99723 29.209 3.1385 27.791 4.85042 26.6567C6.27701 25.2388 8.27424 24.1045 10.5568 22.9701C12.8393 21.8358 15.4072 20.9851 17.9751 20.4179C17.6898 19.8507 17.4044 19 17.4044 17.5821Z" fill="white"/>
</g>
<defs>
<clipPath id="clip0_1_638">
<rect width="206" height="76" fill="white"/>
</clipPath>
</defs>
</svg>
