<svg width="123" height="47" viewBox="0 0 123 47" fill="none" xmlns="http://www.w3.org/2000/svg">
<g clip-path="url(#clip0_1_607)">
<path d="M87.3717 3.52197C87.3717 2.97162 87.4813 2.53133 87.7005 2.31119C87.9198 2.09105 88.4679 1.76084 89.3449 1.43063C89.7834 1.32056 90.0027 0.990351 90.0027 0.77021C90.0027 0.329929 89.6738 0.109789 89.1257 0.109789C88.9064 0.109789 88.6872 0.109789 88.2487 0.219859C87.3717 0.329929 86.6043 0.329929 86.1658 0.329929H83.9733H80.9037C79.0401 0.329929 77.9439 0.329929 77.615 0.219859C77.1765 0.219859 76.8476 0.109789 76.6283 0.109789C75.9706 0.109789 75.7513 0.329929 75.7513 0.77021C75.7513 0.990351 75.861 1.21049 76.0802 1.32056C76.2995 1.43063 76.9572 1.5407 78.0535 1.76084C79.1497 1.98098 80.0267 2.42126 80.5749 3.08169C81.2326 3.74211 81.8904 5.06295 82.6578 6.82407L99.1016 45.2386C99.5401 46.3393 99.9786 46.8896 100.417 46.8896C100.856 46.8896 101.294 46.3393 101.733 45.2386L117.848 7.15428L118.725 5.06295C119.492 3.08169 120.698 1.87091 122.233 1.32056C122.671 1.21049 122.89 0.880281 122.89 0.66014C122.89 0.219859 122.671 0.109789 122.233 0.109789H119.492H118.725H117.299H115.984C115.655 0.109789 114.668 0.109789 113.134 -0.000281312C112.695 -0.000281312 112.366 -0.000281312 112.147 -0.000281312C111.489 -0.000281312 111.051 0.219859 111.051 0.66014C111.051 0.990351 111.599 1.32056 112.805 1.5407C113.791 1.76084 114.449 1.98098 114.778 2.31119C115.107 2.6414 115.217 3.08169 115.217 3.85218C115.217 5.94351 113.682 10.6765 110.612 17.9412L103.487 35.0021L102.939 36.2128C102.39 37.4236 101.952 38.084 101.733 38.084C101.513 38.084 101.184 37.7538 100.856 36.9833L88.6872 8.14492C87.8102 6.05358 87.3717 4.5126 87.3717 3.52197ZM71.0374 2.09105L72.6818 1.43063C73.2299 1.21049 73.5588 0.990351 73.5588 0.55007C73.5588 0.109789 73.2299 -0.110352 72.6818 -0.110352C72.5722 -0.110352 72.2433 -0.110352 71.9144 -0.110352L69.7219 0.109789C68.6257 0.219859 67.2005 0.219859 65.5562 0.219859C62.9251 0.219859 60.8422 0.109789 59.3075 -0.110352C59.0882 -0.110352 58.869 -0.110352 58.7594 -0.110352C58.1016 -0.110352 57.7727 0.109789 57.7727 0.55007C57.7727 0.990351 58.1016 1.21049 58.7594 1.32056C60.7326 1.65077 62.0481 2.31119 62.7059 3.19176C63.3636 4.18239 63.5829 5.94351 63.5829 8.69527V36.7632C63.5829 39.5149 63.3636 41.3861 62.8155 42.2667C62.377 43.1473 61.2808 43.6976 59.6364 44.0278C58.9786 44.1379 58.6497 44.358 58.6497 44.7983C58.6497 45.2386 58.9786 45.4587 59.5267 45.4587C59.9652 45.4587 60.4037 45.4587 61.0615 45.3487L64.8984 45.1285L69.6123 45.2386C71.2567 45.2386 72.3529 45.2386 73.0107 45.3487C73.4492 45.4587 73.8877 45.4587 74.2166 45.4587C74.8743 45.4587 75.2032 45.2386 75.2032 44.6882C75.2032 44.358 74.6551 44.0278 73.5588 43.9177C72.2433 43.6976 71.1471 43.3674 70.5989 42.9271C69.9412 42.4868 69.3931 41.7163 68.9546 40.5056C68.6257 39.5149 68.4064 37.5337 68.4064 34.4517V10.0161C68.7353 5.39316 69.5027 2.75148 71.0374 2.09105ZM32.5588 7.81471C32.5588 4.40253 33.5455 2.42126 35.5187 1.98098L36.615 1.76084C37.2727 1.65077 37.6016 1.32056 37.6016 0.880281C37.6016 0.55007 37.3824 0.44 36.8342 0.44C36.7246 0.44 36.2861 0.44 35.4091 0.55007C33.7647 0.66014 32.0107 0.66014 30.0374 0.66014C28.1738 0.66014 26.5294 0.55007 25.1043 0.44C24.2273 0.329929 23.5695 0.329929 23.0214 0.329929C22.254 0.329929 21.9251 0.55007 21.9251 1.10042C21.9251 1.43063 22.1444 1.65077 22.6925 1.76084L24.1176 1.87091C26.4198 2.31119 27.6257 4.07232 27.6257 6.93414V36.2128V37.7538C27.6257 39.8451 27.4064 41.3861 26.8583 42.2667C26.3102 43.1473 25.3235 43.8077 23.7888 44.248C23.2406 44.4681 22.9118 44.6882 22.9118 45.0185C22.9118 45.4587 23.131 45.5688 23.6791 45.5688C24.1176 45.5688 24.7754 45.4587 25.5428 45.3487C27.2968 45.1285 29.5989 44.9084 32.2299 44.9084C34.5321 44.9084 36.7246 45.0185 38.6979 45.1285L42.2059 45.3487C43.0829 45.4587 43.9599 45.4587 44.6176 45.4587C48.7834 45.4587 51.7433 44.248 53.607 41.9365C54.9225 40.1754 55.5802 38.6344 55.6898 37.2035C55.6898 36.7632 55.5802 36.543 55.2513 36.543C54.9225 36.543 54.5936 36.8733 54.3743 37.4236C53.4973 38.9646 51.6337 40.2854 48.6738 41.2761C45.7139 42.2667 42.2059 42.707 38.1497 42.707C35.4091 42.707 33.7647 42.4868 33.3262 41.9365C32.7781 41.4962 32.5588 39.9552 32.5588 37.3135V36.2128V7.81471ZM13.2647 2.09105L14.9091 1.43063C15.4572 1.21049 15.7861 0.990351 15.7861 0.55007C15.7861 0.109789 15.4572 -0.110352 14.9091 -0.110352C14.7995 -0.110352 14.4706 -0.110352 14.1417 -0.110352L11.9492 0.109789C10.8529 0.219859 9.42781 0.219859 7.78342 0.219859C5.15241 0.329929 3.06952 0.219859 1.53476 -0.000281312C1.31551 -0.000281312 1.09626 -0.000281312 0.986631 -0.000281312C0.328877 -0.000281312 0 0.219859 0 0.66014C0 1.10042 0.328877 1.32056 0.986631 1.43063C2.95989 1.76084 4.2754 2.42126 4.93316 3.30183C5.59091 4.29246 5.81016 6.05358 5.81016 8.80534V36.8733C5.81016 39.625 5.59091 41.4962 5.15241 42.3768C4.7139 43.2573 3.61765 43.8077 1.97326 44.1379C1.31551 44.248 0.986631 44.4681 0.986631 44.9084C0.986631 45.3487 1.31551 45.5688 1.86364 45.5688C2.30214 45.5688 2.85027 45.5688 3.3984 45.4587L7.23529 45.1285L11.9492 45.2386C13.5936 45.2386 14.6898 45.2386 15.3476 45.3487C15.8957 45.4587 16.2246 45.4587 16.5535 45.4587C17.2112 45.4587 17.5401 45.2386 17.5401 44.6882C17.5401 44.358 16.992 44.0278 15.8957 43.9177C14.5802 43.6976 13.5936 43.3674 12.9358 42.9271C12.2781 42.4868 11.7299 41.7163 11.2914 40.5056C10.9626 39.5149 10.7433 37.5337 10.7433 34.4517V10.0161C10.8529 5.39316 11.6203 2.75148 13.2647 2.09105Z" fill="white"/>
</g>
<defs>
<clipPath id="clip0_1_607">
<rect width="123" height="47" fill="white"/>
</clipPath>
</defs>
</svg>
